# xmcd CD database file
#
# Track frame offsets:
#	150
#	21359
#	41443
#	61364
#	64621
#	83630
#	102671
#	123057
#	136419
#	155760
#	171088
#	189918
#	205390
#	229602
#	286076
#
# Disc length: 4466 seconds
#
# Revision: 0
# Processed by: cddbd v1.5.2PL0 Copyright (c) Steve Scherf et al.
# Submitted via: CDex 1.70beta2
#
DISCID=c911700f
DTITLE=Sara Tavares - Xinti - BNSCD-542
DYEAR=2009
DGENRE=Salsa
TTITLE0=Quado Dás Um Pouco Mais もう少し与えてくれるのなら
TTITLE1=Sumanai
TTITLE2=Ponto de Luz 光の一触れ
TTITLE3=Caminhanti 歩く旅人
TTITLE4=Pé Na Strada 旅の途中で
TTITLE5=Bué (Voçê É...) あなたは...
TTITLE6=Di Almo 心の底から
TTITLE7=Keda Livre フリー・フォール
TTITLE8=Só D'imagina 空想して
TTITLE9=Minino 小さな子
TTITLE10=Voz Di Vento 風の声
TTITLE11=Exala ため息
TTITLE12=Fundi Ku Mi 私のそはで
TTITLE13=Manso Manso
TTITLE14=video track
EXTD=YEAR: 2009
EXTT0=
EXTT1=
EXTT2=
EXTT3=
EXTT4=
EXTT5=
EXTT6=
EXTT7=
EXTT8=
EXTT9=
EXTT10=
EXTT11=
EXTT12=
EXTT13=
EXTT14=
PLAYORDER=
